<svg width="64" height="64" viewBox="0 0 64 64" fill="none" xmlns="http://www.w3.org/2000/svg">
  <rect width="64" height="64" rx="16" fill="#0F172A"/>
  <path d="M18 22C18 19.7909 19.7909 18 22 18H42C44.2091 18 46 19.7909 46 22V42C46 44.2091 44.2091 46 42 46H22C19.7909 46 18 44.2091 18 42V22Z" fill="url(#paint0_linear)"/>
  <path d="M24 40C26.5 35 28 30.5 28 26H23.5C23.2239 26 23 25.7761 23 25.5V23.5C23 23.2239 23.2239 23 23.5 23H32.5C32.7761 23 33 23.2239 33 23.5V25.5C33 25.7761 32.7761 26 32.5 26H30.5C30.5 30.9 29 36 26.5 40.5C26.3882 40.6971 26.1883 40.82 25.9688 40.82H24.5312C24.1706 40.82 23.9231 40.4303 24.0782 40.0994L24 40Z" fill="white"/>
  <path d="M37 40C39.4853 40 41.5 37.9853 41.5 35.5C41.5 33.0147 39.4853 31 37 31C36.3203 31 35.676 31.1763 35.1078 31.4888C35.3572 29.9548 36.3635 29 38 29H40C40.2761 29 40.5 28.7761 40.5 28.5V26.5C40.5 26.2239 40.2761 26 40 26H38C34.9624 26 33 28.3655 33 31.75V38.5C33 38.7761 33.2239 39 33.5 39H35.25C35.5261 39 35.75 38.7761 35.75 38.5V38.0625C36.1011 39.2836 36.9944 40 38.25 40H37Z" fill="white"/>
  <defs>
    <linearGradient id="paint0_linear" x1="18" y1="18" x2="48" y2="48" gradientUnits="userSpaceOnUse">
      <stop stop-color="#FB923C"/>
      <stop offset="1" stop-color="#FACC15"/>
    </linearGradient>
  </defs>
</svg>

